<svg width="17" height="16" fill="none" xmlns="http://www.w3.org/2000/svg"><path d="M17 8.184c0-.544-.045-1.09-.14-1.626h-7.7v3.08h4.41a3.7 3.7 0 01-1.632 2.432v1.999h2.63C16.112 12.675 17 10.618 17 8.184z" fill="#4285F4"/><path d="M9.16 16c2.202 0 4.058-.708 5.41-1.931l-2.63-2c-.731.489-1.676.765-2.777.765-2.129 0-3.934-1.408-4.582-3.301H1.867v2.06C3.252 14.296 6.074 16 9.16 16z" fill="#34A853"/><path d="M4.578 9.533a4.702 4.702 0 010-3.063V4.41H1.867a7.865 7.865 0 000 7.184l2.71-2.061z" fill="#FBBC04"/><path d="M9.16 3.166a4.485 4.485 0 013.131 1.2l2.33-2.285A7.933 7.933 0 009.162 0C6.073 0 3.251 1.705 1.866 4.41l2.71 2.06c.646-1.896 2.454-3.304 4.583-3.304z" fill="#EA4335"/></svg>