<svg width="16" height="14" fill="none" xmlns="http://www.w3.org/2000/svg"><path d="M14.355 3.489c.01.153.01.306.01.46 0 4.67-3.299 10.051-9.33 10.051A8.79 8.79 0 010 12.414a6.3 6.3 0 00.792.044c1.533 0 2.944-.558 4.071-1.51-1.442-.032-2.65-1.05-3.066-2.45.203.033.406.055.62.055.294 0 .588-.044.862-.12C1.777 8.105.65 6.683.65 4.966v-.044c.437.262.945.426 1.483.448C1.249 4.736.67 3.653.67 2.428c0-.656.162-1.258.447-1.783C2.73 2.79 5.157 4.19 7.878 4.342a4.285 4.285 0 01-.081-.81C7.797 1.587 9.259 0 11.077 0c.943 0 1.796.427 2.395 1.116a6.182 6.182 0 002.081-.853 3.488 3.488 0 01-1.441 1.946c.66-.076 1.3-.273 1.888-.546a7.37 7.37 0 01-1.645 1.826z" fill="#1DA1F2"/></svg>